{
	"asset":{
		"generator":"Khronos glTF Blender I/O v4.1.63",
		"version":"2.0"
	},
	"scene":0,
	"scenes":[
		{
			"name":"Scene",
			"nodes":[
				0
			]
		}
	],
	"nodes":[
		{
			"mesh":0,
			"name":"VisualSceneNode1.23745",
			"scale":[
				0.009999999776482582,
				0.009999999776482582,
				0.009999999776482582
			],
			"translation":[
				-0.37700819969177246,
				0,
				-0.49830663204193115
			]
		}
	],
	"materials":[
		{
			"doubleSided":true,
			"name":"Material26",
			"pbrMetallicRoughness":{
				"baseColorFactor":[
					0.800000011920929,
					0.800000011920929,
					0.800000011920929,
					1
				],
				"metallicFactor":0,
				"roughnessFactor":0.5
			}
		},
		{
			"doubleSided":true,
			"name":"Material4",
			"pbrMetallicRoughness":{
				"baseColorFactor":[
					0.800000011920929,
					0.800000011920929,
					0.800000011920929,
					1
				],
				"metallicFactor":0,
				"roughnessFactor":0.5
			}
		}
	],
	"meshes":[
		{
			"name":"Geometry10428",
			"primitives":[
				{
					"attributes":{
						"POSITION":0
					},
					"indices":1,
					"material":0
				},
				{
					"attributes":{
						"POSITION":2
					},
					"indices":3,
					"material":1
				}
			]
		}
	],
	"accessors":[
		{
			"bufferView":0,
			"componentType":5126,
			"count":4,
			"max":[
				64.29000091552734,
				20.399999618530273,
				49.30999755859375
			],
			"min":[
				64.29000091552734,
				17.100000381469727,
				49.15999984741211
			],
			"type":"VEC3"
		},
		{
			"bufferView":1,
			"componentType":5123,
			"count":6,
			"type":"SCALAR"
		},
		{
			"bufferView":2,
			"componentType":5126,
			"count":112,
			"max":[
				64.29000091552734,
				20.399999618530273,
				49.30999755859375
			],
			"min":[
				13.639999389648438,
				17.100000381469727,
				49.15999984741211
			],
			"type":"VEC3"
		},
		{
			"bufferView":3,
			"componentType":5123,
			"count":582,
			"type":"SCALAR"
		}
	],
	"bufferViews":[
		{
			"buffer":0,
			"byteLength":48,
			"byteOffset":0,
			"target":34962
		},
		{
			"buffer":0,
			"byteLength":12,
			"byteOffset":48,
			"target":34963
		},
		{
			"buffer":0,
			"byteLength":1344,
			"byteOffset":60,
			"target":34962
		},
		{
			"buffer":0,
			"byteLength":1164,
			"byteOffset":1404,
			"target":34963
		}
	],
	"buffers":[
		{
			"byteLength":2568,
			"uri":"BOL-Section-bit.bin"
		}
	]
}
