{
	"asset":{
		"generator":"Khronos glTF Blender I/O v4.1.63",
		"version":"2.0"
	},
	"extensionsUsed":[
		"KHR_materials_specular"
	],
	"scene":0,
	"scenes":[
		{
			"name":"Scene",
			"nodes":[
				0,
				1,
				2
			]
		}
	],
	"nodes":[
		{
			"mesh":0,
			"name":"VisualSceneNode1.19027",
			"scale":[
				0.009999999776482582,
				0.009999999776482582,
				0.009999999776482582
			],
			"translation":[
				0.008819609880447388,
				-0.0015086914645507932,
				-0.04001587629318237
			]
		},
		{
			"mesh":1,
			"name":"VisualSceneNode1.19590",
			"scale":[
				0.009999999776482582,
				0.009999999776482582,
				0.009999999776482582
			],
			"translation":[
				-0.29583656787872314,
				-0.12120451778173447,
				0.05773070454597473
			]
		},
		{
			"mesh":2,
			"name":"VisualSceneNode1.19839",
			"scale":[
				0.009999999776482582,
				0.009999999776482582,
				0.009999999776482582
			],
			"translation":[
				-0.34644460678100586,
				0.0020000000949949026,
				0.023242861032485962
			]
		}
	],
	"materials":[
		{
			"doubleSided":true,
			"name":"Material49",
			"pbrMetallicRoughness":{
				"baseColorFactor":[
					0.800000011920929,
					0.800000011920929,
					0.800000011920929,
					1
				],
				"metallicFactor":0,
				"roughnessFactor":0.5
			}
		},
		{
			"doubleSided":true,
			"name":"Material35",
			"pbrMetallicRoughness":{
				"baseColorFactor":[
					0.800000011920929,
					0.800000011920929,
					0.800000011920929,
					1
				],
				"metallicFactor":0,
				"roughnessFactor":0.5
			}
		},
		{
			"doubleSided":true,
			"name":"Material21",
			"pbrMetallicRoughness":{
				"baseColorFactor":[
					0.9607840180397034,
					0.8823530077934265,
					0.2549020051956177,
					1
				],
				"metallicFactor":0,
				"roughnessFactor":0.5
			}
		},
		{
			"doubleSided":true,
			"name":"Material24",
			"pbrMetallicRoughness":{
				"baseColorFactor":[
					0.800000011920929,
					0.800000011920929,
					0.800000011920929,
					1
				],
				"metallicFactor":0,
				"roughnessFactor":0.5
			}
		},
		{
			"doubleSided":true,
			"extensions":{
				"KHR_materials_specular":{
					"specularFactor":0
				}
			},
			"name":"Material8",
			"pbrMetallicRoughness":{
				"baseColorFactor":[
					0.15258999168872833,
					0.15258999168872833,
					0.15258999168872833,
					1
				],
				"metallicFactor":0,
				"roughnessFactor":0.5
			}
		},
		{
			"doubleSided":true,
			"name":"Material41",
			"pbrMetallicRoughness":{
				"baseColorFactor":[
					0.800000011920929,
					0.800000011920929,
					0.800000011920929,
					1
				],
				"metallicFactor":0,
				"roughnessFactor":0.5
			}
		},
		{
			"doubleSided":true,
			"name":"Material50",
			"pbrMetallicRoughness":{
				"baseColorFactor":[
					0.800000011920929,
					0.800000011920929,
					0.800000011920929,
					1
				],
				"metallicFactor":0,
				"roughnessFactor":0.5
			}
		}
	],
	"meshes":[
		{
			"name":"Geometry3544",
			"primitives":[
				{
					"attributes":{
						"POSITION":0,
						"NORMAL":1,
						"TEXCOORD_0":2
					},
					"indices":3,
					"material":0
				},
				{
					"attributes":{
						"POSITION":4,
						"NORMAL":5,
						"TEXCOORD_0":6
					},
					"indices":7,
					"material":1
				}
			]
		},
		{
			"name":"Geometry4107",
			"primitives":[
				{
					"attributes":{
						"POSITION":8,
						"NORMAL":9,
						"TEXCOORD_0":10
					},
					"indices":11,
					"material":2
				},
				{
					"attributes":{
						"POSITION":12,
						"NORMAL":13,
						"TEXCOORD_0":14
					},
					"indices":15,
					"material":3
				},
				{
					"attributes":{
						"POSITION":16,
						"NORMAL":17,
						"TEXCOORD_0":18
					},
					"indices":19,
					"material":4
				}
			]
		},
		{
			"name":"Geometry4356",
			"primitives":[
				{
					"attributes":{
						"POSITION":20,
						"NORMAL":21,
						"TEXCOORD_0":22
					},
					"indices":23,
					"material":5
				},
				{
					"attributes":{
						"POSITION":24,
						"NORMAL":25,
						"TEXCOORD_0":26
					},
					"indices":27,
					"material":6
				}
			]
		}
	],
	"accessors":[
		{
			"bufferView":0,
			"componentType":5126,
			"count":688,
			"max":[
				44.66578674316406,
				0.15086914598941803,
				22.216880798339844
			],
			"min":[
				-41.5343132019043,
				-0.14913086593151093,
				-13.879520416259766
			],
			"type":"VEC3"
		},
		{
			"bufferView":1,
			"componentType":5126,
			"count":688,
			"type":"VEC3"
		},
		{
			"bufferView":2,
			"componentType":5126,
			"count":688,
			"type":"VEC2"
		},
		{
			"bufferView":3,
			"componentType":5123,
			"count":1296,
			"type":"SCALAR"
		},
		{
			"bufferView":4,
			"componentType":5126,
			"count":27,
			"max":[
				44.66578674316406,
				0.15086914598941803,
				22.216880798339844
			],
			"min":[
				-41.5343132019043,
				-0.14913086593151093,
				-13.879520416259766
			],
			"type":"VEC3"
		},
		{
			"bufferView":5,
			"componentType":5126,
			"count":27,
			"type":"VEC3"
		},
		{
			"bufferView":6,
			"componentType":5126,
			"count":27,
			"type":"VEC2"
		},
		{
			"bufferView":7,
			"componentType":5123,
			"count":42,
			"type":"SCALAR"
		},
		{
			"bufferView":8,
			"componentType":5126,
			"count":20,
			"max":[
				0.32120561599731445,
				5.620451927185059,
				12.442222595214844
			],
			"min":[
				0.27120542526245117,
				-5.629548072814941,
				-14.769977569580078
			],
			"type":"VEC3"
		},
		{
			"bufferView":9,
			"componentType":5126,
			"count":20,
			"type":"VEC3"
		},
		{
			"bufferView":10,
			"componentType":5126,
			"count":20,
			"type":"VEC2"
		},
		{
			"bufferView":11,
			"componentType":5123,
			"count":30,
			"type":"SCALAR"
		},
		{
			"bufferView":12,
			"componentType":5126,
			"count":26,
			"max":[
				0.27120542526245117,
				5.620451927185059,
				12.442222595214844
			],
			"min":[
				-0.328794002532959,
				-5.629548072814941,
				-15.369979858398438
			],
			"type":"VEC3"
		},
		{
			"bufferView":13,
			"componentType":5126,
			"count":26,
			"type":"VEC3"
		},
		{
			"bufferView":14,
			"componentType":5126,
			"count":26,
			"type":"VEC2"
		},
		{
			"bufferView":15,
			"componentType":5123,
			"count":42,
			"type":"SCALAR"
		},
		{
			"bufferView":16,
			"componentType":5126,
			"count":8,
			"max":[
				0.32120561599731445,
				5.620451927185059,
				12.442222595214844
			],
			"min":[
				-0.328794002532959,
				-5.629548072814941,
				12.442222595214844
			],
			"type":"VEC3"
		},
		{
			"bufferView":17,
			"componentType":5126,
			"count":8,
			"type":"VEC3"
		},
		{
			"bufferView":18,
			"componentType":5126,
			"count":8,
			"type":"VEC2"
		},
		{
			"bufferView":19,
			"componentType":5123,
			"count":12,
			"type":"SCALAR"
		},
		{
			"bufferView":20,
			"componentType":5126,
			"count":8,
			"max":[
				4.8397603034973145,
				0.20000000298023224,
				15.891006469726562
			],
			"min":[
				-6.007889747619629,
				-0.20000000298023224,
				-13.921295166015625
			],
			"type":"VEC3"
		},
		{
			"bufferView":21,
			"componentType":5126,
			"count":8,
			"type":"VEC3"
		},
		{
			"bufferView":22,
			"componentType":5126,
			"count":8,
			"type":"VEC2"
		},
		{
			"bufferView":23,
			"componentType":5123,
			"count":12,
			"type":"SCALAR"
		},
		{
			"bufferView":24,
			"componentType":5126,
			"count":94,
			"max":[
				13.48250961303711,
				0.20000000298023224,
				15.891006469726562
			],
			"min":[
				-6.007889747619629,
				-0.20000000298023224,
				-14.251995086669922
			],
			"type":"VEC3"
		},
		{
			"bufferView":25,
			"componentType":5126,
			"count":94,
			"type":"VEC3"
		},
		{
			"bufferView":26,
			"componentType":5126,
			"count":94,
			"type":"VEC2"
		},
		{
			"bufferView":27,
			"componentType":5123,
			"count":168,
			"type":"SCALAR"
		}
	],
	"bufferViews":[
		{
			"buffer":0,
			"byteLength":8256,
			"byteOffset":0,
			"target":34962
		},
		{
			"buffer":0,
			"byteLength":8256,
			"byteOffset":8256,
			"target":34962
		},
		{
			"buffer":0,
			"byteLength":5504,
			"byteOffset":16512,
			"target":34962
		},
		{
			"buffer":0,
			"byteLength":2592,
			"byteOffset":22016,
			"target":34963
		},
		{
			"buffer":0,
			"byteLength":324,
			"byteOffset":24608,
			"target":34962
		},
		{
			"buffer":0,
			"byteLength":324,
			"byteOffset":24932,
			"target":34962
		},
		{
			"buffer":0,
			"byteLength":216,
			"byteOffset":25256,
			"target":34962
		},
		{
			"buffer":0,
			"byteLength":84,
			"byteOffset":25472,
			"target":34963
		},
		{
			"buffer":0,
			"byteLength":240,
			"byteOffset":25556,
			"target":34962
		},
		{
			"buffer":0,
			"byteLength":240,
			"byteOffset":25796,
			"target":34962
		},
		{
			"buffer":0,
			"byteLength":160,
			"byteOffset":26036,
			"target":34962
		},
		{
			"buffer":0,
			"byteLength":60,
			"byteOffset":26196,
			"target":34963
		},
		{
			"buffer":0,
			"byteLength":312,
			"byteOffset":26256,
			"target":34962
		},
		{
			"buffer":0,
			"byteLength":312,
			"byteOffset":26568,
			"target":34962
		},
		{
			"buffer":0,
			"byteLength":208,
			"byteOffset":26880,
			"target":34962
		},
		{
			"buffer":0,
			"byteLength":84,
			"byteOffset":27088,
			"target":34963
		},
		{
			"buffer":0,
			"byteLength":96,
			"byteOffset":27172,
			"target":34962
		},
		{
			"buffer":0,
			"byteLength":96,
			"byteOffset":27268,
			"target":34962
		},
		{
			"buffer":0,
			"byteLength":64,
			"byteOffset":27364,
			"target":34962
		},
		{
			"buffer":0,
			"byteLength":24,
			"byteOffset":27428,
			"target":34963
		},
		{
			"buffer":0,
			"byteLength":96,
			"byteOffset":27452,
			"target":34962
		},
		{
			"buffer":0,
			"byteLength":96,
			"byteOffset":27548,
			"target":34962
		},
		{
			"buffer":0,
			"byteLength":64,
			"byteOffset":27644,
			"target":34962
		},
		{
			"buffer":0,
			"byteLength":24,
			"byteOffset":27708,
			"target":34963
		},
		{
			"buffer":0,
			"byteLength":1128,
			"byteOffset":27732,
			"target":34962
		},
		{
			"buffer":0,
			"byteLength":1128,
			"byteOffset":28860,
			"target":34962
		},
		{
			"buffer":0,
			"byteLength":752,
			"byteOffset":29988,
			"target":34962
		},
		{
			"buffer":0,
			"byteLength":336,
			"byteOffset":30740,
			"target":34963
		}
	],
	"buffers":[
		{
			"byteLength":31076,
			"uri":"BOL-Section-bit.bin"
		}
	]
}
